<svg xmlns="http://www.w3.org/2000/svg" width="16" height="16" viewBox="0 0 4.233 4.233" id="notification-on">
  <g transform="translate(73.405 -1.965)">
    <g>
      <g>
        <g>
          <g>
            <g>
              <g>
                <g>
                  <g>
                    <g>
                      <path fill="none" stroke="#000" stroke-linecap="round" stroke-linejoin="round" stroke-width=".265" d="M-70.714792 2.4781111c-.170106-.077014-.366309-.1178767-.575334-.1178767-.651753 0-1.175928.3972781-1.175928 1.0490316 0 .8625506-.279225.7052208-.279225 1.5651169 0 0 .616074.1994104 1.455153.1994104.839078 0 1.45733-.1994104 1.45733-.1994104 0-.8598961-.27848-.7025663-.27848-1.5651169M-70.802967 5.7009896a.56126595.19786714 0 01-.486071.098934.56126595.19786714 0 01-.48607-.098934" paint-order="markers fill stroke"></path>
                    </g>
                    <path fill="none" stroke="#000" stroke-linecap="round" stroke-linejoin="round" stroke-width=".265" d="M-72.745279 4.9743828l-.262797-.092096M-69.569999 4.8822869l-.262797.092096" paint-order="markers fill stroke"></path>
                  </g>
                  <path fill="none" stroke="#000" stroke-linecap="round" stroke-linejoin="round" stroke-width=".265" d="m -69.834077,2.8619587 a 0.50022745,0.50022745 0 0 1 -0.500228,0.5002275 0.50022745,0.50022745 0 0 1 -0.500227,-0.5002275 0.50022745,0.50022745 0 0 1 0.500227,-0.5002274 0.50022745,0.50022745 0 0 1 0.500228,0.5002274 z" paint-order="markers fill stroke"></path>
                </g>
              </g>
            </g>
          </g>
        </g>
      </g>
    </g>
  </g>
</svg>
